<svg width="740" height="155" viewBox="0 0 740 155" fill="none" xmlns="http://www.w3.org/2000/svg">
<path d="M97.9687 152.688V2.98339H121.066V152.688H97.9687ZM0.233295 152.688V2.98339H23.3305V152.688H0.233295ZM10.2849 89.1702V66.9284H108.234V89.1702H10.2849ZM147.316 152.688L205.273 2.98339H228.798L286.327 152.688H261.733L227.515 62.4373C227.087 61.4393 226.231 59.0155 224.948 55.166C223.808 51.3164 222.453 47.0392 220.885 42.3342C219.316 37.6292 217.891 33.3519 216.608 29.5024C215.324 25.5103 214.469 22.9439 214.041 21.8033L218.96 21.5895C218.105 24.0133 217.035 27.0786 215.752 30.7856C214.611 34.4925 213.328 38.4134 211.903 42.548C210.619 46.6827 209.336 50.6036 208.053 54.3105C206.77 57.8749 205.701 60.869 204.845 63.2928L170.841 152.688H147.316ZM172.979 115.475L181.534 93.2336H249.542L259.38 115.475H172.979ZM312.674 152.688V2.98339H335.771V130.446H405.918V152.688H312.674ZM499.184 154.826C488.633 154.826 478.867 152.901 469.885 149.052C461.045 145.202 453.275 139.856 446.574 133.012C440.015 126.026 434.883 117.899 431.176 108.632C427.611 99.2217 425.829 88.9563 425.829 77.8354C425.829 66.7146 427.611 56.5204 431.176 47.253C434.883 37.8431 440.015 29.7163 446.574 22.8726C453.275 15.8865 461.045 10.4686 469.885 6.61906C478.867 2.76952 488.633 0.844757 499.184 0.844757C509.735 0.844757 519.43 2.76952 528.269 6.61906C537.252 10.4686 545.022 15.8865 551.58 22.8726C558.282 29.8588 563.414 38.0569 566.979 47.4669C570.686 56.7343 572.539 66.8571 572.539 77.8354C572.539 88.8137 570.686 99.0079 566.979 108.418C563.414 117.685 558.282 125.812 551.58 132.798C545.022 139.784 537.252 145.202 528.269 149.052C519.43 152.901 509.735 154.826 499.184 154.826ZM499.184 132.371C506.455 132.371 513.085 131.016 519.073 128.307C525.204 125.598 530.479 121.82 534.899 116.972C539.319 111.982 542.741 106.208 545.165 99.6495C547.731 92.9484 549.014 85.6771 549.014 77.8354C549.014 69.9938 547.731 62.7937 545.165 56.2353C542.741 49.5342 539.319 43.7599 534.899 38.9124C530.479 33.9222 525.204 30.0727 519.073 27.3638C513.085 24.6548 506.455 23.3004 499.184 23.3004C491.913 23.3004 485.212 24.6548 479.081 27.3638C473.093 30.0727 467.817 33.8509 463.255 38.6985C458.835 43.5461 455.413 49.3204 452.99 56.0214C450.566 62.5799 449.354 69.8512 449.354 77.8354C449.354 85.6771 450.566 92.9484 452.99 99.6495C455.413 106.351 458.835 112.125 463.255 116.972C467.817 121.82 473.093 125.598 479.081 128.307C485.212 131.016 491.913 132.371 499.184 132.371ZM666.473 154.826C655.923 154.826 646.156 152.901 637.174 149.052C628.334 145.202 620.564 139.856 613.863 133.012C607.305 126.026 602.172 117.899 598.465 108.632C594.901 99.2217 593.118 88.9563 593.118 77.8354C593.118 66.7146 594.901 56.5204 598.465 47.253C602.172 37.8431 607.305 29.7163 613.863 22.8726C620.564 15.8865 628.334 10.4686 637.174 6.61906C646.156 2.76952 655.923 0.844757 666.473 0.844757C677.024 0.844757 686.719 2.76952 695.559 6.61906C704.541 10.4686 712.311 15.8865 718.87 22.8726C725.571 29.8588 730.704 38.0569 734.268 47.4669C737.975 56.7343 739.828 66.8571 739.828 77.8354C739.828 88.8137 737.975 99.0079 734.268 108.418C730.704 117.685 725.571 125.812 718.87 132.798C712.311 139.784 704.541 145.202 695.559 149.052C686.719 152.901 677.024 154.826 666.473 154.826ZM666.473 132.371C673.745 132.371 680.375 131.016 686.363 128.307C692.493 125.598 697.769 121.82 702.189 116.972C706.608 111.982 710.03 106.208 712.454 99.6495C715.02 92.9484 716.303 85.6771 716.303 77.8354C716.303 69.9938 715.02 62.7937 712.454 56.2353C710.03 49.5342 706.608 43.7599 702.189 38.9124C697.769 33.9222 692.493 30.0727 686.363 27.3638C680.375 24.6548 673.745 23.3004 666.473 23.3004C659.202 23.3004 652.501 24.6548 646.37 27.3638C640.382 30.0727 635.107 33.8509 630.544 38.6985C626.125 43.5461 622.703 49.3204 620.279 56.0214C617.855 62.5799 616.643 69.8512 616.643 77.8354C616.643 85.6771 617.855 92.9484 620.279 99.6495C622.703 106.351 626.125 112.125 630.544 116.972C635.107 121.82 640.382 125.598 646.37 128.307C652.501 131.016 659.202 132.371 666.473 132.371Z" fill="black"/>
</svg>
