<svg width="740" height="155" viewBox="0 0 740 155" fill="none" xmlns="http://www.w3.org/2000/svg">
<path d="M97.7602 152V2.29589H120.857V152H97.7602ZM0.0247988 152V2.29589H23.122V152H0.0247988ZM10.0764 88.4827V66.2409H108.026V88.4827H10.0764ZM147.107 152L205.064 2.29589H228.589L286.118 152H261.524L227.306 61.7498C226.878 60.7518 226.023 58.328 224.74 54.4785C223.599 50.6289 222.245 46.3517 220.676 41.6467C219.108 36.9417 217.682 32.6644 216.399 28.8149C215.116 24.8228 214.26 22.2564 213.833 21.1158L218.752 20.902C217.896 23.3258 216.827 26.3911 215.544 30.0981C214.403 33.805 213.12 37.7259 211.694 41.8605C210.411 45.9952 209.128 49.9161 207.845 53.623C206.561 57.1874 205.492 60.1815 204.637 62.6053L170.632 152H147.107ZM172.771 114.788L181.325 92.5461H249.334L259.172 114.788H172.771ZM312.465 152V2.29589H335.562V129.758H405.71V152H312.465ZM498.976 154.139C488.425 154.139 478.659 152.214 469.676 148.364C460.837 144.515 453.066 139.168 446.365 132.325C439.807 125.338 434.674 117.212 430.967 107.944C427.403 98.5342 425.621 88.2688 425.621 77.1479C425.621 66.0271 427.403 55.8329 430.967 46.5655C434.674 37.1556 439.807 29.0288 446.365 22.1851C453.066 15.199 460.837 9.7811 469.676 5.93156C478.659 2.08202 488.425 0.157257 498.976 0.157257C509.526 0.157257 519.221 2.08202 528.061 5.93156C537.043 9.7811 544.814 15.199 551.372 22.1851C558.073 29.1713 563.206 37.3694 566.77 46.7794C570.477 56.0468 572.331 66.1696 572.331 77.1479C572.331 88.1262 570.477 98.3204 566.77 107.73C563.206 116.998 558.073 125.125 551.372 132.111C544.814 139.097 537.043 144.515 528.061 148.364C519.221 152.214 509.526 154.139 498.976 154.139ZM498.976 131.683C506.247 131.683 512.877 130.329 518.865 127.62C524.996 124.911 530.271 121.132 534.691 116.285C539.111 111.295 542.532 105.52 544.956 98.962C547.522 92.2609 548.806 84.9896 548.806 77.1479C548.806 69.3063 547.522 62.1062 544.956 55.5478C542.532 48.8467 539.111 43.0724 534.691 38.2249C530.271 33.2347 524.996 29.3852 518.865 26.6763C512.877 23.9673 506.247 22.6129 498.976 22.6129C491.704 22.6129 485.003 23.9673 478.872 26.6763C472.884 29.3852 467.609 33.1634 463.047 38.011C458.627 42.8586 455.205 48.6329 452.781 55.3339C450.357 61.8924 449.145 69.1637 449.145 77.1479C449.145 84.9896 450.357 92.2609 452.781 98.962C455.205 105.663 458.627 111.437 463.047 116.285C467.609 121.132 472.884 124.911 478.872 127.62C485.003 130.329 491.704 131.683 498.976 131.683ZM666.265 154.139C655.714 154.139 645.948 152.214 636.966 148.364C628.126 144.515 620.356 139.168 613.655 132.325C607.096 125.338 601.963 117.212 598.256 107.944C594.692 98.5342 592.91 88.2688 592.91 77.1479C592.91 66.0271 594.692 55.8329 598.256 46.5655C601.963 37.1556 607.096 29.0288 613.655 22.1851C620.356 15.199 628.126 9.7811 636.966 5.93156C645.948 2.08202 655.714 0.157257 666.265 0.157257C676.815 0.157257 686.511 2.08202 695.35 5.93156C704.333 9.7811 712.103 15.199 718.661 22.1851C725.362 29.1713 730.495 37.3694 734.059 46.7794C737.766 56.0468 739.62 66.1696 739.62 77.1479C739.62 88.1262 737.766 98.3204 734.059 107.73C730.495 116.998 725.362 125.125 718.661 132.111C712.103 139.097 704.333 144.515 695.35 148.364C686.511 152.214 676.815 154.139 666.265 154.139ZM666.265 131.683C673.536 131.683 680.166 130.329 686.154 127.62C692.285 124.911 697.56 121.132 701.98 116.285C706.4 111.295 709.822 105.52 712.245 98.962C714.812 92.2609 716.095 84.9896 716.095 77.1479C716.095 69.3063 714.812 62.1062 712.245 55.5478C709.822 48.8467 706.4 43.0724 701.98 38.2249C697.56 33.2347 692.285 29.3852 686.154 26.6763C680.166 23.9673 673.536 22.6129 666.265 22.6129C658.994 22.6129 652.293 23.9673 646.162 26.6763C640.174 29.3852 634.898 33.1634 630.336 38.011C625.916 42.8586 622.494 48.6329 620.07 55.3339C617.647 61.8924 616.435 69.1637 616.435 77.1479C616.435 84.9896 617.647 92.2609 620.07 98.962C622.494 105.663 625.916 111.437 630.336 116.285C634.898 121.132 640.174 124.911 646.162 127.62C652.293 130.329 658.994 131.683 666.265 131.683Z" fill="white"/>
</svg>
