<svg width="24" height="24" viewBox="0 0 24 24" fill="none" xmlns="http://www.w3.org/2000/svg">
<path d="M22.5 18C22.5 17.11 22.2361 16.24 21.7416 15.4999C21.2471 14.7599 20.5443 14.1831 19.7221 13.8425C18.8998 13.5019 17.995 13.4128 17.1221 13.5865C16.2492 13.7601 15.4474 14.1887 14.818 14.818C14.1887 15.4474 13.7601 16.2492 13.5865 17.1221C13.4128 17.995 13.5019 18.8998 13.8425 19.7221C14.1831 20.5443 14.7599 21.2471 15.4999 21.7416C16.24 22.2361 17.11 22.5 18 22.5C19.193 22.4986 20.3368 22.0241 21.1804 21.1804C22.0241 20.3368 22.4986 19.193 22.5 18ZM21 18C20.9972 18.5338 20.8503 19.057 20.5748 19.5142L16.4858 15.4252C16.943 15.1498 17.4662 15.0028 18 15C18.7953 15.001 19.5578 15.3174 20.1202 15.8798C20.6826 16.4422 20.999 17.2047 21 18V18ZM15 18C15.0028 17.4662 15.1497 16.943 15.4252 16.4858L19.5142 20.5748C19.057 20.8502 18.5338 20.9972 18 21C17.2047 20.999 16.4422 20.6826 15.8798 20.1202C15.3174 19.5578 15.001 18.7953 15 18V18ZM6 12H13.5V13.5H6V12ZM6 7.5H15V9H6V7.5Z" fill="white"/>
<path d="M10.5 20.7997L6.5745 18.7073C5.4939 18.1325 4.59024 17.2742 3.96049 16.2247C3.33075 15.1752 2.99871 13.974 3.00001 12.75V3H18V11.25H19.5V3C19.4996 2.6023 19.3414 2.221 19.0602 1.93978C18.779 1.65856 18.3977 1.5004 18 1.5H3.00001C2.6023 1.5004 2.221 1.65856 1.93978 1.93978C1.65856 2.221 1.5004 2.6023 1.50001 3V12.75C1.49833 14.2458 1.90404 15.7137 2.67359 16.9964C3.44313 18.279 4.54745 19.3278 5.868 20.0303L10.5 22.5V20.7997Z" fill="white"/>
</svg>
