<svg width="24" height="24" viewBox="0 0 24 24" fill="none" xmlns="http://www.w3.org/2000/svg">
<g clip-path="url(#clip0_345_168)">
<path d="M7.12969 1.78891C7.58906 2.20469 7.62656 2.91578 7.20938 3.37797L3.83625 7.12984C3.62953 7.35484 3.33797 7.49078 3.02953 7.45797C2.72109 7.50953 2.42297 7.38766 2.20453 7.12984L0.329484 5.25484C-0.109828 4.85641 -0.109828 4.14391 0.329484 3.70469C0.76875 3.26547 1.48125 3.26547 1.92047 3.70469L2.95688 4.73922L5.54062 1.87234C5.95312 1.41062 6.66563 1.37312 7.12969 1.78891ZM7.12969 9.29078C7.58906 9.70328 7.62656 10.4158 7.20938 10.8798L3.83625 14.6298C3.62953 14.8548 3.33797 14.9908 3.02953 14.958C2.72109 15.0095 2.42297 14.8877 2.20453 14.6298L0.329484 12.7548C-0.109828 12.3564 -0.109828 11.6439 0.329484 11.2033C0.76875 10.7673 1.48125 10.7673 1.92047 11.2033L2.95688 12.2392L5.54062 9.37047C5.95312 8.91109 6.66563 8.87359 7.12969 9.29078V9.29078ZM10.5 4.50016C10.5 3.67187 11.1703 3.00016 12 3.00016H22.5C23.3297 3.00016 24 3.67187 24 4.50016C24 5.32984 23.3297 6.00016 22.5 6.00016H12C11.1703 6.00016 10.5 5.32984 10.5 4.50016ZM10.5 12.0002C10.5 11.1705 11.1703 10.5002 12 10.5002H22.5C23.3297 10.5002 24 11.1705 24 12.0002C24 12.8298 23.3297 13.5002 22.5 13.5002H12C11.1703 13.5002 10.5 12.8298 10.5 12.0002ZM7.5 19.5002C7.5 18.6705 8.17031 18.0002 9 18.0002H22.5C23.3297 18.0002 24 18.6705 24 19.5002C24 20.3298 23.3297 21.0002 22.5 21.0002H9C8.17031 21.0002 7.5 20.3298 7.5 19.5002ZM0 19.5002C0 18.258 1.00734 17.2502 2.25 17.2502C3.49266 17.2502 4.5 18.258 4.5 19.5002C4.5 20.7423 3.49266 21.7502 2.25 21.7502C1.00734 21.7502 0 20.7423 0 19.5002Z" fill="white"/>
</g>
<defs>
<clipPath id="clip0_345_168">
<rect width="24" height="24" fill="white"/>
</clipPath>
</defs>
</svg>
