<svg width="24" height="24" viewBox="0 0 24 24" fill="none" xmlns="http://www.w3.org/2000/svg">
<path d="M20.2498 3C20.4488 3 20.6395 3.07902 20.7802 3.21967C20.9208 3.36032 20.9998 3.55109 20.9998 3.75V8.75C20.9998 8.94891 20.9208 9.13968 20.7802 9.28033C20.6395 9.42098 20.4488 9.5 20.2498 9.5C20.0509 9.5 19.8602 9.42098 19.7195 9.28033C19.5789 9.13968 19.4998 8.94891 19.4998 8.75V5.56L13.5298 11.53C13.3892 11.6705 13.1986 11.7493 12.9998 11.7493C12.8011 11.7493 12.6105 11.6705 12.4698 11.53L10.2498 9.31L4.27985 15.28C4.13767 15.4125 3.94963 15.4846 3.75532 15.4812C3.56102 15.4777 3.37564 15.399 3.23822 15.2616C3.10081 15.1242 3.0221 14.9388 3.01867 14.7445C3.01524 14.5502 3.08737 14.3622 3.21985 14.22L9.71985 7.72C9.86047 7.57955 10.0511 7.50066 10.2498 7.50066C10.4486 7.50066 10.6392 7.57955 10.7798 7.72L12.9998 9.94L18.4398 4.5H15.2498C15.0509 4.5 14.8602 4.42098 14.7195 4.28033C14.5789 4.13968 14.4998 3.94891 14.4998 3.75C14.4998 3.55109 14.5789 3.36032 14.7195 3.21967C14.8602 3.07902 15.0509 3 15.2498 3H20.2498V3ZM14.2778 13.975C14.3526 14.2335 14.3745 14.5045 14.342 14.7717C14.3096 15.0389 14.2236 15.2968 14.0892 15.5299C13.9547 15.7631 13.7746 15.9667 13.5596 16.1285C13.3446 16.2904 13.0991 16.4072 12.8378 16.472L12.2528 16.616C12.1592 17.2149 12.1613 17.8248 12.2588 18.423L12.7988 18.553C13.0624 18.6165 13.3103 18.7329 13.5275 18.8952C13.7447 19.0574 13.9267 19.2622 14.0623 19.4969C14.1979 19.7317 14.2844 19.9916 14.3165 20.2608C14.3485 20.53 14.3255 20.8029 14.2488 21.063L14.0618 21.695C14.5018 22.081 15.0018 22.394 15.5468 22.616L16.0398 22.098C16.2267 21.9015 16.4515 21.745 16.7007 21.6381C16.9499 21.5312 17.2182 21.476 17.4893 21.476C17.7605 21.476 18.0288 21.5312 18.278 21.6381C18.5272 21.745 18.752 21.9015 18.9388 22.098L19.4378 22.623C19.9793 22.4028 20.4804 22.0943 20.9208 21.71L20.7218 21.024C20.6472 20.7654 20.6256 20.4944 20.6582 20.2272C20.6909 19.96 20.7771 19.7022 20.9117 19.4692C21.0464 19.2361 21.2267 19.0326 21.4418 18.8709C21.657 18.7092 21.9025 18.5925 22.1638 18.528L22.7468 18.384C22.8406 17.7848 22.8385 17.1746 22.7408 16.576L22.2018 16.446C21.9383 16.3825 21.6903 16.2661 21.4732 16.1038C21.256 15.9415 21.074 15.7368 20.9384 15.5021C20.8028 15.2673 20.7163 15.0074 20.6842 14.7382C20.6522 14.469 20.6752 14.1961 20.7518 13.936L20.9378 13.306C20.4979 12.918 19.9964 12.6061 19.4538 12.383L18.9608 12.902C18.774 13.0987 18.5491 13.2553 18.2998 13.3623C18.0506 13.4693 17.7821 13.5245 17.5108 13.5245C17.2396 13.5245 16.9711 13.4693 16.7219 13.3623C16.4726 13.2553 16.2477 13.0987 16.0608 12.902L15.5628 12.377C15.0216 12.5972 14.5205 12.9053 14.0798 13.289L14.2778 13.975V13.975ZM17.4998 19C16.6998 19 16.0498 18.328 16.0498 17.5C16.0498 16.671 16.6998 16 17.4998 16C18.2998 16 18.9498 16.671 18.9498 17.5C18.9498 18.328 18.2998 19 17.4998 19Z" fill="white"/>
</svg>
