<svg width="24" height="24" viewBox="0 0 24 24" fill="none" xmlns="http://www.w3.org/2000/svg">
<path d="M12.9998 2.03027V4.05027C17.3898 4.59027 20.4998 8.58027 19.9598 12.9703C19.4998 16.6103 16.6398 19.5003 12.9998 19.9303V21.9303C18.4998 21.3803 22.4998 16.5003 21.9498 11.0003C21.4998 6.25027 17.7298 2.50027 12.9998 2.03027V2.03027ZM10.9998 2.06027C9.0498 2.25027 7.1898 3.00027 5.6698 4.26027L7.0998 5.74027C8.2198 4.84027 9.5698 4.26027 10.9998 4.06027V2.06027V2.06027ZM4.2598 5.67027C3.00946 7.18762 2.24001 9.04336 2.0498 11.0003H4.0498C4.2398 9.58027 4.7998 8.23027 5.6898 7.10027L4.2598 5.67027ZM2.0598 13.0003C2.2598 14.9603 3.0298 16.8103 4.2698 18.3303L5.6898 16.9003C4.80673 15.7699 4.24376 14.4229 4.0598 13.0003H2.0598V13.0003ZM7.0998 18.3703L5.6698 19.7403C7.18458 21.003 9.03907 21.7893 10.9998 22.0003V20.0003C9.57721 19.8163 8.23021 19.2533 7.0998 18.3703V18.3703ZM16.8198 15.1903L12.7098 11.0803C13.1198 10.0403 12.8898 8.82027 12.0298 7.97027C11.1298 7.06027 9.7798 6.88027 8.6898 7.38027L10.6298 9.32027L9.2798 10.6803L7.2898 8.73027C6.7498 9.82027 6.9998 11.1703 7.8798 12.0803C8.7398 12.9403 9.9598 13.1603 10.9998 12.7603L15.1098 16.8603C15.2898 17.0503 15.5598 17.0503 15.7398 16.8603L16.7798 15.8303C16.9998 15.6503 16.9998 15.3303 16.8198 15.1903V15.1903Z" fill="white"/>
</svg>
