<svg width="24" height="24" viewBox="0 0 24 24" fill="none" xmlns="http://www.w3.org/2000/svg">
<path fill-rule="evenodd" clip-rule="evenodd" d="M10.529 3.76C9.18 4.252 8.122 5.4025 7.6995 6.847C6.949 7.232 6.5 7.72 6.5 8.25C6.5 8.849 7.072 9.3935 8.005 9.7965C7.9779 10.3379 8.06115 10.8792 8.24969 11.3875C8.43822 11.8958 8.72811 12.3605 9.10175 12.7533C9.47538 13.1461 9.92496 13.4588 10.4232 13.6725C10.9214 13.8862 11.4579 13.9964 12 13.9964C12.5421 13.9964 13.0786 13.8862 13.5768 13.6725C14.075 13.4588 14.5246 13.1461 14.8983 12.7533C15.2719 12.3605 15.5618 11.8958 15.7503 11.3875C15.9389 10.8792 16.0221 10.3379 15.995 9.7965C16.928 9.3935 17.5 8.849 17.5 8.25C17.5 7.7195 17.051 7.232 16.3 6.847C15.8775 5.402 14.82 4.252 13.471 3.7595C13.4173 3.54262 13.2924 3.34999 13.1165 3.21233C12.9405 3.07467 12.7234 2.99992 12.5 3H11.5C11.2765 2.99995 11.0594 3.07477 10.8834 3.21253C10.7074 3.35028 10.5826 3.54303 10.529 3.76V3.76ZM11 6C11.1326 6 11.2598 5.94732 11.3536 5.85355C11.4473 5.75979 11.5 5.63261 11.5 5.5V4H12.5V5.5C12.5 5.63261 12.5527 5.75979 12.6464 5.85355C12.7402 5.94732 12.8674 6 13 6C13.1326 6 13.2598 5.94732 13.3536 5.85355C13.4473 5.75979 13.5 5.63261 13.5 5.5V4.861C14.2935 5.266 14.934 5.9875 15.2625 6.889C15.2611 6.89481 15.2597 6.90064 15.2585 6.9065C15.2336 6.92611 15.2074 6.94398 15.18 6.96C15.037 7.045 14.801 7.138 14.474 7.223C13.8275 7.3915 12.9335 7.5 12 7.5C11.0665 7.5 10.1725 7.3915 9.526 7.223C9.199 7.138 8.963 7.045 8.82 6.96C8.79264 6.94398 8.76641 6.92611 8.7415 6.9065L8.7405 6.902C8.73958 6.89765 8.73858 6.89331 8.7375 6.889C9.066 5.9875 9.7065 5.2655 10.5 4.861V5.5C10.5 5.63261 10.5527 5.75979 10.6464 5.85355C10.7402 5.94732 10.8674 6 11 6ZM8.172 7.729L8.1555 7.737C7.852 7.8925 7.6685 8.0405 7.572 8.151C7.54435 8.18051 7.52111 8.21385 7.503 8.25C7.5135 8.274 7.544 8.326 7.6275 8.407C7.784 8.5585 8.063 8.741 8.4895 8.9155C9.3375 9.2625 10.5785 9.5 12 9.5C13.4215 9.5 14.6625 9.2625 15.51 8.915C15.937 8.741 16.216 8.5585 16.3725 8.407C16.456 8.326 16.4865 8.274 16.497 8.25C16.4789 8.21385 16.4556 8.18051 16.428 8.151C16.3315 8.0405 16.148 7.8925 15.8445 7.737L15.828 7.729C15.7841 7.76113 15.7387 7.79117 15.692 7.819C15.4335 7.973 15.0945 8.095 14.7255 8.191C13.9805 8.385 13 8.5 12 8.5C11 8.5 10.0195 8.385 9.2745 8.191C8.9055 8.095 8.5665 7.973 8.308 7.8185C8.26127 7.79067 8.21588 7.76063 8.172 7.7285V7.729ZM16.502 8.264L16.5 8.26L16.501 8.265L16.502 8.264ZM16.502 8.235C16.5015 8.235 16.501 8.2365 16.5005 8.24C16.5009 8.23869 16.5012 8.23735 16.5015 8.236V8.2345L16.502 8.235ZM7.499 8.238L7.4985 8.235L7.4995 8.24V8.238H7.499ZM7.499 8.262V8.2595V8.261L7.4985 8.264L7.499 8.262ZM14.997 10.137C14.135 10.367 13.105 10.5 12 10.5C10.895 10.5 9.865 10.3665 9.003 10.137C9.03754 10.9087 9.36838 11.6373 9.92664 12.1711C10.4849 12.7049 11.2276 13.0029 12 13.0029C12.7724 13.0029 13.5151 12.7049 14.0734 12.1711C14.6316 11.6373 14.9625 10.9087 14.997 10.137V10.137ZM17.3425 13.297C17.3705 13.2089 17.3735 13.1147 17.3512 13.025C17.3289 12.9352 17.2822 12.8534 17.2162 12.7886C17.1502 12.7239 17.0675 12.6787 16.9773 12.6581C16.8872 12.6375 16.7931 12.6423 16.7055 12.672C16.1259 12.869 15.6138 13.2257 15.2279 13.701C14.8421 14.1763 14.5983 14.7508 14.5246 15.3585C14.4509 15.9662 14.5503 16.5824 14.8113 17.1361C15.0723 17.6898 15.4843 18.1586 16 18.4885V20.5C16 20.6326 16.0527 20.7598 16.1464 20.8536C16.2402 20.9473 16.3674 21 16.5 21H19C19.1326 21 19.2598 20.9473 19.3536 20.8536C19.4473 20.7598 19.5 20.6326 19.5 20.5V18.489C20.0159 18.1592 20.4283 17.6904 20.6895 17.1365C20.9507 16.5827 21.0501 15.9663 20.9764 15.3584C20.9027 14.7505 20.6588 14.1758 20.2728 13.7005C19.8867 13.2251 19.3743 12.8684 18.7945 12.6715C18.7069 12.6418 18.6127 12.6369 18.5225 12.6575C18.4323 12.6781 18.3495 12.7234 18.2835 12.7882C18.2175 12.8531 18.1707 12.935 18.1485 13.0248C18.1262 13.1146 18.1294 13.2088 18.1575 13.297C18.1618 13.3105 18.1655 13.3242 18.1685 13.338L18.447 14.638C18.469 14.7418 18.4676 14.8492 18.4428 14.9524C18.4179 15.0556 18.3704 15.1519 18.3036 15.2343C18.2368 15.3168 18.1524 15.3833 18.0567 15.4289C17.9609 15.4746 17.8561 15.4983 17.75 15.4983C17.6439 15.4983 17.5391 15.4746 17.4433 15.4289C17.3476 15.3833 17.2632 15.3168 17.1964 15.2343C17.1296 15.1519 17.0821 15.0556 17.0572 14.9524C17.0324 14.8492 17.031 14.7418 17.053 14.638L17.3315 13.338C17.3345 13.3242 17.3382 13.3105 17.3425 13.297V13.297ZM19.4245 14.4285L19.3745 14.1925C19.6176 14.4459 19.798 14.7527 19.9013 15.0883C20.0046 15.4239 20.0279 15.7791 19.9693 16.1253C19.9107 16.4715 19.772 16.7992 19.5641 17.0822C19.3562 17.3652 19.0849 17.5956 18.772 17.755C18.6869 17.7984 18.616 17.8652 18.5677 17.9476C18.5194 18.03 18.4958 18.1246 18.4995 18.22L18.5 18.25V20H17V18.246L17.0005 18.22C17.0043 18.1246 16.9807 18.0301 16.9325 17.9477C16.8843 17.8653 16.8135 17.7985 16.7285 17.755C16.4156 17.5956 16.1443 17.3652 15.9364 17.0822C15.7285 16.7992 15.5898 16.4715 15.5312 16.1253C15.4726 15.7791 15.4959 15.4239 15.5992 15.0883C15.7025 14.7527 15.8829 14.4459 16.126 14.1925L16.0755 14.4285C16.022 14.6782 16.025 14.9367 16.0843 15.185C16.1436 15.4334 16.2577 15.6653 16.4183 15.8639C16.5788 16.0625 16.7817 16.2226 17.0121 16.3326C17.2425 16.4427 17.4947 16.4998 17.75 16.4998C18.0053 16.4998 18.2575 16.4427 18.4879 16.3326C18.7183 16.2226 18.9212 16.0625 19.0817 15.8639C19.2423 15.6653 19.3564 15.4334 19.4157 15.185C19.475 14.9367 19.478 14.6782 19.4245 14.4285ZM9.1765 14.304L11.5 16.111V17.9485C11.6025 17.9745 11.7625 18 12 18C12.2375 18 12.3975 17.975 12.5 17.9485V16L13.5 15.25V21H3V18C3 16.1695 6.26 14.8635 9.1765 14.304V14.304ZM7.2375 18.134L10.5 17.5905V20H6.5V16.09C7.04765 15.8798 7.6069 15.7012 8.175 15.555L7.2375 18.134V18.134ZM4 20H5.5V16.5395L5.463 16.559C4.931 16.841 4.542 17.1285 4.297 17.399C4.057 17.665 4 17.8615 4 18V20ZM12 19C11.811 19 11.645 18.9875 11.5 18.9665V20H12.5V18.9665C12.355 18.9875 12.189 19 12 19ZM10.475 16.5805L9.221 15.6055L8.7625 16.866L10.475 16.581V16.5805Z" fill="white"/>
</svg>
