<svg width="24" height="24" viewBox="0 0 24 24" fill="none" xmlns="http://www.w3.org/2000/svg">
<path d="M20.9659 0.75L15.3517 3.65625L10.1486 1.40625L3.03412 1.875L0.75 21.8438L8.10562 21.2186L16.2698 23.25L23.25 20.7188L20.9659 0.75ZM20.3445 1.91588L22.4377 20.2155L16.4138 22.3999L16.3804 21.6971L21.6945 19.6909L19.8787 2.9685L15.5869 5.004L15.5576 4.39425L15.6968 4.32263L20.3445 1.91588V1.91588ZM15.9806 13.2934C16.0639 13.1164 16.1456 12.8677 16.1846 12.519C16.1846 12.519 16.5979 12.5393 17.1064 13.6474C17.1064 13.6474 17.3284 13.6252 17.2178 12.9019C17.2178 12.9019 18.0116 12.582 17.5834 11.1754C17.5834 11.1754 18.2494 12.0926 18.0281 10.9001C18.0281 10.9001 18.7586 10.0046 17.886 9.40912C17.886 9.40912 17.916 8.74875 18.4406 8.8335C18.4406 8.8335 18.9649 7.47 18.7121 9.08887C18.7121 9.08887 18.7271 9.40913 19.0605 9.77025C19.0605 9.77025 19.2041 9.23812 18.9495 8.66437C18.9495 8.66437 19.4741 7.68263 19.4261 6.83175C19.4261 6.83175 17.7266 7.46212 15.8355 7.27387C15.8355 7.27387 15.9277 6.92212 15.6694 6.7245L15.6165 5.61263L15.6615 5.59125L19.4055 3.816L21.0885 19.3189L16.3526 21.1072L15.9806 13.2934V13.2934ZM15.2914 6.69562C15.096 6.97425 14.5537 7.83112 14.8834 8.34412C14.8834 8.34412 14.7236 9.45525 14.5009 7.8345C14.5009 7.8345 14.1367 8.79113 13.644 8.57775C13.644 8.57775 13.5086 9.546 13.1985 8.89725C13.1985 8.89725 13.4524 9.00412 13.5082 8.706C13.5082 8.706 12.7924 7.93913 12.3645 9.09863C12.3645 9.09863 12.015 9.23775 12.1504 9.7815C12.1504 9.7815 12.3956 9.333 12.5231 10.0159C12.5231 10.0159 12.6585 9.90937 12.7151 9.03525C12.7151 9.03525 13.0549 8.86575 12.7924 9.5565C12.7924 9.5565 13.5709 9.56887 12.3645 10.2592C12.3645 10.2592 12.2977 10.248 12.2452 9.98325C12.2452 9.98325 12.0626 10.6207 11.6884 10.8469C11.6884 10.8469 11.7761 11.1015 11.4986 11.2185C11.4986 11.2185 11.3482 11.613 11.706 11.613C11.706 11.613 12.0154 10.665 12.6034 11.4109C12.6034 11.4109 12.7155 11.3685 12.5404 10.9954C12.5404 10.9954 12.8494 11.1139 12.969 11.6025C12.969 11.6025 13.1599 11.5695 13.1902 11.1446C13.1902 11.1446 13.4299 10.6016 13.8195 11.241C13.8195 11.241 13.3024 11.0914 13.1681 11.613C13.1681 11.613 13.4126 11.5061 13.5649 11.6558C13.5649 11.6558 13.5803 11.8991 13.4243 11.9933C13.4918 12.12 13.5649 12.2415 13.6669 12.3442C13.6953 12.3707 13.7137 12.4062 13.719 12.4447C13.7242 12.4831 13.716 12.5223 13.6957 12.5554C13.971 13.0264 14.4795 13.6534 14.8354 12.6525C14.8354 12.6525 14.3591 12.9229 14.1998 12.177C14.1998 12.177 15.1609 12.2992 15.6041 13.2634L15.9772 21.1189L8.50275 19.0226L8.61487 17.9138C8.77012 18.3116 8.952 18.4733 8.952 18.4733C8.74087 16.7426 9.98962 15.6337 9.98962 15.6337C10.2322 14.4457 9.61537 13.9125 9.0435 13.6725L9.33713 10.767C9.45488 10.6204 9.52425 10.5225 9.52425 10.5225C9.48188 10.3766 9.44062 10.2487 9.40125 10.1317L9.68588 7.3125C9.92513 7.60388 9.9525 7.86862 9.88538 8.10938C9.5775 9.21675 9.9735 9.55612 9.9735 9.55612C10.2139 8.62087 11.0389 8.47162 11.0389 8.47162C10.9916 7.59712 11.4994 6.603 11.4994 6.603C10.947 5.65387 10.1569 6.294 9.74288 6.747L9.77512 6.42862C9.85987 6.3195 9.94838 6.20063 10.044 6.06488C10.044 6.06488 9.96488 6.0105 9.82125 5.97075L10.0732 3.47513L15.2048 5.60213L15.2407 5.61713L15.2914 6.69562V6.69562ZM9.44812 5.9325C9.19237 5.9445 8.865 6.03263 8.47988 6.29888C8.47988 6.29888 8.29688 7.97962 9.34763 6.92625L9.23025 8.08912C9.093 7.63012 8.7675 7.47037 8.7675 7.47037C8.44875 7.66312 8.48062 7.91812 8.48062 7.91812C8.76975 7.96162 8.94638 8.30962 9.05025 8.63587C8.99175 8.7255 8.89162 8.82788 8.71875 8.84475C8.71875 8.84475 8.92012 9.14737 9.11512 9.23212L9.09375 9.44062C8.64 8.76075 8.4435 10.1269 8.4435 10.1269C7.32188 8.877 8.74125 8.2515 8.74125 8.2515C7.87237 7.88437 7.47 6.83212 7.47 6.83212C7.42763 7.48575 7.173 7.45688 7.173 7.45688C5.18175 6.29288 4.82325 8.1675 4.82325 8.1675C5.13938 9.1605 4.46175 9.27413 4.46175 9.27413C5.118 9.38738 5.45662 8.47875 5.45662 8.47875C6.81337 9.1605 6.093 11.6029 6.093 11.6029C6.62212 11.9141 6.77063 12.9375 6.77063 12.9375C7.13925 13.0493 7.51687 13.275 7.78162 13.4539C7.833 13.4077 7.88588 13.3639 7.94138 13.323C7.32263 12.8857 7.3215 12.1777 7.3215 12.1777C7.88288 12.1777 8.47987 11.694 8.91075 11.2492L8.67825 13.5529C8.5736 13.5266 8.46756 13.5062 8.36063 13.4918C8.26065 13.5397 8.16674 13.5994 8.08087 13.6695L8.12662 13.7051C7.50262 14.904 8.34637 15.3847 8.48625 15.4541L8.12812 18.9979L3.16463 19.386L4.82025 3.70575L9.702 3.4185L9.44812 5.9325V5.9325ZM8.44537 19.5911L16.005 21.7114L16.0388 22.4197L8.35275 20.5073L8.44537 19.5911ZM15.1823 4.40025L15.2108 4.9965L10.1325 2.89162L10.1978 2.24438L15.054 4.34475L15.1823 4.40025V4.40025ZM3.70837 2.58225L9.82725 2.17912L9.75937 2.85188L4.311 3.17212L2.53462 19.9999L8.0715 19.566L7.97925 20.4765L1.59937 21.0191L3.70837 2.58225Z" fill="white"/>
<path d="M12.023 13.7315C12.023 13.7315 12.8188 13.8804 12.5004 15.4137C12.5004 15.4137 12.6275 16.6089 13.3254 16.4997C13.3254 16.4997 13.5159 14.7751 14.4058 13.454C14.4058 13.454 14.045 13.8132 13.6359 12.6219C13.574 12.6669 13.49 12.6774 13.4199 12.6076C13.2436 12.4317 13.1371 12.2101 13.0224 11.9874C13.0061 11.9553 12.9995 11.9192 13.0033 11.8835C12.4243 11.6675 11.2516 11.4507 11.0855 13.1559C11.0859 13.1559 11.3075 14.3296 12.023 13.7315V13.7315ZM11.6585 9.74825C11.7133 10.5162 11.816 10.7495 11.9506 10.4304C12.086 10.1139 11.6585 9.74825 11.6585 9.74825ZM11.4181 10.4731C11.4181 10.4731 11.642 10.4401 11.5779 10.1585C11.5779 10.1585 11.4181 10.175 11.4181 10.4731ZM11.3319 8.92925C11.3319 8.92925 10.7675 8.92925 10.967 9.21762C11.1654 9.50525 11.3319 8.92925 11.3319 8.92925ZM14.1523 15.9256C14.1523 15.9256 14.3248 15.5739 14.3191 15.0316C14.3195 15.0316 13.7705 15.6586 14.1523 15.9256ZM17.7095 13.7214C17.7095 13.7214 17.312 14.084 17.3848 14.4144C17.4564 14.7459 17.8051 14.3491 17.7095 13.7214ZM19.2991 14.894C19.4735 14.5887 18.344 14.2107 18.344 14.2107C18.5671 14.5415 19.1409 15.1662 19.2991 14.894ZM18.0358 14.9592C18.3009 14.5055 17.2333 14.7226 17.2333 14.7226C17.2333 14.7226 17.9326 15.1385 18.0358 14.9592ZM18.4554 15.0537C18.4554 15.0537 18.2416 15.5319 17.4474 15.7332C17.4474 15.7332 17.615 16.1176 17.4474 16.8425C17.4474 16.8425 18.2491 15.8195 18.7111 17.2992C18.7111 17.2992 19.1075 17.5145 19.3854 16.1746C19.3854 16.1746 19.052 15.692 18.941 15.0057C18.9414 15.0054 18.8311 15.8847 18.4554 15.0537V15.0537ZM18.6121 10.6914C18.6628 10.649 18.7021 10.6336 18.7021 10.6336C18.3133 10.0047 18.4554 10.9111 18.4554 10.9111C18.4805 10.8515 18.5101 10.8057 18.5405 10.7671C18.5611 11.0356 18.4966 11.4357 18.0774 11.816C18.077 11.816 18.9763 11.477 18.6121 10.6914ZM11.7493 5.98325C11.9454 5.5235 11.3289 5 11.3289 5C11.408 6.10512 11.5546 6.44262 11.7493 5.98325ZM10.9828 6.04362C10.9828 6.04362 11.3019 5.99637 11.2115 5.59212C11.2115 5.59212 10.9828 5.615 10.9828 6.04362Z" fill="white"/>
</svg>
