<svg width="24" height="24" viewBox="0 0 24 24" fill="none" xmlns="http://www.w3.org/2000/svg">
<path fill-rule="evenodd" clip-rule="evenodd" d="M4 21.5C4 21.3674 4.05268 21.2402 4.14645 21.1464C4.24021 21.0527 4.36739 21 4.5 21H19.5C19.6326 21 19.7598 21.0527 19.8536 21.1464C19.9473 21.2402 20 21.3674 20 21.5C20 21.6326 19.9473 21.7598 19.8536 21.8536C19.7598 21.9473 19.6326 22 19.5 22H4.5C4.36739 22 4.24021 21.9473 4.14645 21.8536C4.05268 21.7598 4 21.6326 4 21.5Z" fill="white"/>
<path fill-rule="evenodd" clip-rule="evenodd" d="M6 11V21H8.5V11H6ZM5.5 10C5.36739 10 5.24021 10.0527 5.14645 10.1464C5.05268 10.2402 5 10.3674 5 10.5V21.5C5 21.6326 5.05268 21.7598 5.14645 21.8536C5.24021 21.9473 5.36739 22 5.5 22H9C9.13261 22 9.25979 21.9473 9.35355 21.8536C9.44732 21.7598 9.5 21.6326 9.5 21.5V10.5C9.5 10.3674 9.44732 10.2402 9.35355 10.1464C9.25979 10.0527 9.13261 10 9 10H5.5Z" fill="white"/>
<path fill-rule="evenodd" clip-rule="evenodd" d="M8.5 2L16.5 5V12H15.5V5.693L9.5 3.443V21H13.5C13.5 21.1326 13.5527 21.2598 13.6464 21.3536C13.7402 21.4473 13.8674 21.5 14 21.5H16.5V22H8.5V2Z" fill="white"/>
<path d="M10 6.5H11V7.5H10V6.5ZM12 6.5H13V7.5H12V6.5ZM14 6.5H15V7.5H14V6.5ZM10 8.5H11V9.5H10V8.5ZM12 8.5H13V9.5H12V8.5ZM14 8.5H15V9.5H14V8.5ZM10 10.5H11V11.5H10V10.5ZM12 10.5H13V11.5H12V10.5ZM14 10.5H15V11.5H14V10.5ZM10 12.5H11V13.5H10V12.5ZM12 12.5H13V13.5H12V12.5ZM10 14.5H11V15.5H10V14.5ZM12 14.5H13V15.5H12V14.5ZM10 16.5H11V17.5H10V16.5ZM12 16.5H13V17.5H12V16.5ZM10 18.5H11V19.5H10V18.5ZM12 18.5H13V19.5H12V18.5Z" fill="white"/>
<path fill-rule="evenodd" clip-rule="evenodd" d="M14.5 13V21H18V13H14.5ZM14 12C13.8674 12 13.7402 12.0527 13.6464 12.1464C13.5527 12.2402 13.5 12.3674 13.5 12.5V21.5C13.5 21.6326 13.5527 21.7598 13.6464 21.8536C13.7402 21.9473 13.8674 22 14 22H18.5C18.6326 22 18.7598 21.9473 18.8536 21.8536C18.9473 21.7598 19 21.6326 19 21.5V12.5C19 12.3674 18.9473 12.2402 18.8536 12.1464C18.7598 12.0527 18.6326 12 18.5 12H14Z" fill="white"/>
<path fill-rule="evenodd" clip-rule="evenodd" d="M17 15H15.5V14H17V15ZM17 17H15.5V16H17V17ZM17 19H15.5V18H17V19ZM17 21H15.5V20H17V21ZM7.5 6.5V11H6.5V6.5H7.5Z" fill="white"/>
</svg>
